<svg width="24" height="24" viewBox="0 0 24 24" fill="none" xmlns="http://www.w3.org/2000/svg">
<path d="M14.541 13.7922C14.3469 13.671 14.1292 13.5745 13.8622 13.5016C13.5952 13.4287 13.3045 13.3558 12.9893 13.2838V16.5311C13.2799 16.4828 13.5469 16.4099 13.8129 16.337C14.0799 16.2641 14.2977 16.143 14.4918 15.9981C14.6859 15.8523 14.8307 15.7075 14.9519 15.5134C15.0731 15.3193 15.1214 15.1015 15.1214 14.8345C15.1214 14.5921 15.0731 14.3981 14.9756 14.2286C14.8563 14.0582 14.7105 13.9134 14.541 13.7922Z" fill="#396EF1"/>
<path d="M9.35486 9.72012C9.35486 10.1566 9.52433 10.4955 9.8396 10.7379C10.1549 10.9803 10.6633 11.1497 11.3421 11.2709V8.04712C10.0091 8.21754 9.35486 8.77431 9.35486 9.72012Z" fill="#396EF1"/>
<path d="M12.2386 0.800537C5.88862 0.800537 0.72583 5.96333 0.72583 12.3133C0.72583 18.6632 5.88862 23.826 12.2386 23.826C18.5885 23.826 23.7513 18.6632 23.7513 12.3133C23.7513 5.96333 18.5885 0.800537 12.2386 0.800537ZM16.7954 16.0948C16.6013 16.483 16.3353 16.8219 15.9717 17.1125C15.6082 17.4032 15.1717 17.6456 14.687 17.815C14.2022 17.9845 13.6209 18.1303 12.9903 18.2269V19.5846H11.342V18.3244C10.9538 18.3244 10.5666 18.2998 10.1548 18.2761C9.76659 18.2515 9.37938 18.2032 9.03947 18.1303C8.70054 18.082 8.38526 18.0091 8.0946 17.9362C7.80395 17.8633 7.58523 17.7904 7.41577 17.6939V15.9726C7.68276 16.0692 7.99707 16.1667 8.36063 16.2633C8.72419 16.3598 9.16066 16.4574 9.69369 16.5303C10.2031 16.6032 10.7361 16.6268 11.2445 16.6268H11.3411L11.342 13.0652C10.8573 12.9923 10.3725 12.8711 9.88776 12.7499C9.42764 12.6287 8.99118 12.4346 8.62762 12.1922C8.26406 11.9499 7.94878 11.6346 7.73103 11.2474C7.51327 10.8592 7.3921 10.3744 7.3921 9.79313C7.3921 9.30839 7.48867 8.84827 7.68275 8.46008C7.87684 8.04824 8.14287 7.70834 8.50643 7.41768C8.84537 7.12703 9.25818 6.88466 9.74292 6.71519C10.2277 6.5211 10.7607 6.39991 11.343 6.35163L11.342 5.04226H12.9904V6.3024C13.6692 6.32702 14.2988 6.39897 14.8811 6.49649C15.4624 6.59306 15.9964 6.71425 16.4565 6.88468V8.62957C15.9235 8.4601 15.3904 8.33891 14.8328 8.21773C14.2751 8.09654 13.6455 8.02364 12.9904 7.99997V11.5391C13.4997 11.6357 13.9845 11.7332 14.4692 11.878C14.954 11.9992 15.3904 12.1933 15.7776 12.4357C16.1658 12.6781 16.4801 12.9933 16.7225 13.3569C16.9649 13.7451 17.0861 14.2298 17.0861 14.8111C17.0861 15.2703 16.9895 15.7066 16.7954 16.0948Z" fill="#396EF1"/>
</svg>
