<svg width="27" height="27" viewBox="0 0 27 27" fill="none" xmlns="http://www.w3.org/2000/svg">
<g clip-path="url(#clip0_14_88)">
<path d="M26.1903 13.8242C26.1903 12.759 26.1039 11.9817 25.9168 11.1756H13.7532V15.9834H20.893C20.7491 17.1782 19.9717 18.9776 18.2443 20.1867L18.2201 20.3476L22.066 23.327L22.3325 23.3536C24.7796 21.0936 26.1903 17.7684 26.1903 13.8242Z" fill="#4285F4"/>
<path d="M13.7532 26.4917C17.2511 26.4917 20.1876 25.34 22.3325 23.3536L18.2443 20.1867C17.1503 20.9496 15.682 21.4822 13.7532 21.4822C10.3272 21.4822 7.41948 19.2223 6.38295 16.0986L6.23102 16.1115L2.23199 19.2064L2.17969 19.3518C4.3101 23.5838 8.68614 26.4917 13.7532 26.4917Z" fill="#34A853"/>
<path d="M6.38274 16.0986C6.10925 15.2925 5.95097 14.4288 5.95097 13.5363C5.95097 12.6438 6.10925 11.7801 6.36836 10.974L6.36111 10.8024L2.31196 7.65776L2.17948 7.72077C1.30143 9.47696 0.797607 11.4491 0.797607 13.5363C0.797607 15.6236 1.30143 17.5956 2.17948 19.3518L6.38274 16.0986Z" fill="#FBBC05"/>
<path d="M13.7532 5.59036C16.1858 5.59036 17.8268 6.64118 18.7625 7.51932L22.4188 3.94938C20.1733 1.86214 17.2511 0.580994 13.7532 0.580994C8.68614 0.580994 4.3101 3.48873 2.17969 7.72077L6.36857 10.974C7.41948 7.85038 10.3272 5.59036 13.7532 5.59036Z" fill="#EB4335"/>
</g>
<defs>
<clipPath id="clip0_14_88">
<rect width="26" height="26" fill="white" transform="translate(0.5 0.580994)"/>
</clipPath>
</defs>
</svg>
