<svg width="165" height="32" viewBox="0 0 165 32" fill="none" xmlns="http://www.w3.org/2000/svg">
<path d="M38.9806 25.2523L41.8911 7.78926H47.8485L47.3028 11.109H47.4847C48.0228 10.0176 48.7846 9.15355 49.7699 8.51688C50.7552 7.88021 51.858 7.56188 53.0783 7.56188C54.2986 7.56188 55.2991 7.88779 56.0798 8.53962C56.8605 9.18387 57.2546 10.0403 57.2622 11.109H57.4441C57.914 10.0403 58.6833 9.18387 59.752 8.53962C60.8207 7.88779 62.0069 7.56188 63.3105 7.56188C64.9704 7.56188 66.2324 8.10002 67.0965 9.17629C67.9681 10.2526 68.2523 11.6851 67.9492 13.4738L65.9937 25.2523H59.7179L61.446 15.0655C61.5521 14.3 61.446 13.7012 61.1277 13.2692C60.8093 12.8296 60.3243 12.6098 59.6724 12.6098C59.0282 12.6098 58.4825 12.8296 58.0353 13.2692C57.5957 13.7012 57.3228 14.3 57.2167 15.0655L55.4886 25.2523H49.4857L51.2138 15.0655C51.3199 14.3 51.2138 13.7012 50.8954 13.2692C50.5771 12.8296 50.092 12.6098 49.4402 12.6098C49.0158 12.6098 48.6292 12.7083 48.2805 12.9054C47.9395 13.1024 47.6552 13.3867 47.4279 13.7581C47.2081 14.1219 47.0603 14.5577 46.9845 15.0655L45.2564 25.2523H38.9806Z" fill="black"/>
<path d="M76.4052 25.5706C74.5406 25.5706 72.9944 25.2144 71.7666 24.5019C70.5387 23.7819 69.6747 22.751 69.1744 21.4095C68.6742 20.0604 68.5832 18.4459 68.9016 16.5662C69.2047 14.7623 69.83 13.1858 70.7775 11.8367C71.7325 10.4875 72.9338 9.43778 74.3815 8.68742C75.8367 7.93706 77.4663 7.56188 79.2702 7.56188C80.589 7.56188 81.7449 7.76652 82.7378 8.17581C83.7383 8.5851 84.5531 9.18008 85.1822 9.96076C85.8112 10.7414 86.2357 11.6851 86.4555 12.7917C86.6829 13.8907 86.6829 15.1337 86.4555 16.5208L86.2281 17.976H70.6297L71.1754 14.5198H80.9983C81.0741 14.0195 81.0248 13.5799 80.8505 13.201C80.6838 12.8144 80.4147 12.515 80.0433 12.3028C79.6795 12.083 79.2399 11.9731 78.7245 11.9731C78.2091 11.9731 77.724 12.083 77.2692 12.3028C76.8221 12.5226 76.4393 12.8296 76.121 13.2237C75.8102 13.6178 75.6018 14.0802 75.4957 14.6107L74.8135 18.2489C74.7225 18.8097 74.7567 19.31 74.9158 19.7496C75.075 20.1892 75.3516 20.5341 75.7458 20.7842C76.1399 21.0343 76.6477 21.1594 77.2692 21.1594C77.6937 21.1594 78.0954 21.1025 78.4744 20.9888C78.8609 20.8676 79.202 20.6932 79.4976 20.4659C79.8008 20.2309 80.0433 19.9467 80.2252 19.6132H85.9553C85.546 20.8259 84.8979 21.8794 84.0111 22.7738C83.1319 23.6606 82.0481 24.3503 80.7596 24.843C79.4786 25.3281 78.0272 25.5706 76.4052 25.5706Z" fill="black"/>
<path d="M94.5591 15.4293L92.9219 25.2523H86.6462L89.5567 7.78926H95.5141L94.9684 11.109H95.1503C95.7036 9.99487 96.5108 9.12703 97.5719 8.50552C98.6406 7.87642 99.8192 7.56188 101.108 7.56188C102.343 7.56188 103.37 7.84231 104.189 8.40319C105.007 8.96407 105.587 9.73717 105.928 10.7225C106.269 11.7078 106.33 12.8372 106.11 14.1105L104.246 25.2523H97.9698L99.607 15.4293C99.751 14.5653 99.6449 13.8869 99.2887 13.3942C98.94 12.9016 98.364 12.6553 97.5605 12.6553C97.0527 12.6553 96.5866 12.7689 96.1621 12.9963C95.7453 13.2161 95.3966 13.5345 95.1162 13.9513C94.8433 14.3606 94.6576 14.8533 94.5591 15.4293Z" fill="black"/>
<path d="M119.662 7.78926L118.889 12.3369H107.384L108.157 7.78926H119.662ZM111.067 3.60541H117.343L114.683 19.6359C114.645 19.8784 114.652 20.0831 114.705 20.2498C114.758 20.409 114.865 20.5303 115.024 20.6136C115.191 20.6894 115.41 20.7273 115.683 20.7273C115.865 20.7273 116.089 20.7046 116.354 20.6591C116.619 20.6061 116.82 20.5682 116.957 20.5454L117.138 24.9567C116.82 25.0476 116.392 25.1499 115.854 25.2636C115.323 25.3849 114.705 25.4645 114.001 25.5024C112.53 25.5706 111.333 25.4152 110.408 25.0362C109.491 24.6573 108.854 24.0661 108.498 23.2627C108.149 22.4517 108.089 21.4398 108.316 20.2271L111.067 3.60541Z" fill="black"/>
<path d="M126.532 25.5706C124.638 25.5706 123.076 25.1954 121.848 24.4451C120.628 23.6871 119.772 22.6336 119.279 21.2844C118.786 19.9277 118.688 18.355 118.983 16.5662C119.279 14.7775 119.897 13.2085 120.836 11.8594C121.776 10.5027 122.985 9.44915 124.463 8.69879C125.941 7.94085 127.631 7.56188 129.534 7.56188C131.421 7.56188 132.975 7.94085 134.195 8.69879C135.423 9.44915 136.283 10.5027 136.776 11.8594C137.276 13.2085 137.379 14.7775 137.083 16.5662C136.787 18.355 136.166 19.9277 135.218 21.2844C134.271 22.6336 133.058 23.6871 131.58 24.4451C130.11 25.1954 128.427 25.5706 126.532 25.5706ZM127.306 20.932C127.851 20.932 128.348 20.7539 128.795 20.3976C129.25 20.0414 129.636 19.5336 129.955 18.8742C130.28 18.2148 130.519 17.4303 130.671 16.5208C130.822 15.6036 130.845 14.8192 130.739 14.1673C130.633 13.5079 130.413 13.0001 130.08 12.6439C129.746 12.2876 129.306 12.1095 128.761 12.1095C128.215 12.1095 127.715 12.2876 127.26 12.6439C126.805 13.0001 126.419 13.5079 126.1 14.1673C125.782 14.8192 125.547 15.6036 125.395 16.5208C125.244 17.4303 125.217 18.2148 125.316 18.8742C125.422 19.5336 125.642 20.0414 125.975 20.3976C126.316 20.7539 126.76 20.932 127.306 20.932Z" fill="black"/>
<path d="M137.214 25.2523L140.124 7.78926H146.218L145.673 11.109H145.854C146.377 9.88118 147.033 8.98302 147.821 8.41456C148.61 7.8461 149.47 7.56188 150.402 7.56188C150.675 7.56188 150.936 7.58461 151.187 7.63009C151.444 7.66799 151.698 7.72104 151.948 7.78926L151.039 13.1555C150.743 13.0418 150.376 12.9622 149.936 12.9167C149.496 12.8637 149.106 12.8372 148.765 12.8372C148.159 12.8372 147.59 12.9774 147.06 13.2578C146.537 13.5307 146.089 13.9172 145.718 14.4175C145.354 14.9101 145.112 15.49 144.99 16.1569L143.49 25.2523H137.214Z" fill="black"/>
<path d="M150.135 25.2523L153.046 7.78926H159.14L158.594 11.109H158.776C159.299 9.88118 159.954 8.98302 160.743 8.41456C161.531 7.8461 162.391 7.56188 163.323 7.56188C163.596 7.56188 163.858 7.58461 164.108 7.63009C164.366 7.66799 164.619 7.72104 164.87 7.78926L163.96 13.1555C163.664 13.0418 163.297 12.9622 162.857 12.9167C162.418 12.8637 162.027 12.8372 161.686 12.8372C161.08 12.8372 160.511 12.9774 159.981 13.2578C159.458 13.5307 159.011 13.9172 158.639 14.4175C158.276 14.9101 158.033 15.49 157.912 16.1569L156.411 25.2523H150.135Z" fill="black"/>
<path d="M30.7925 20.2569C28.4415 28.366 19.962 33.0338 11.8529 30.6828C3.74383 28.3318 -0.923997 19.8522 1.42701 11.7431C3.77802 3.63407 12.2576 -1.03376 20.3667 1.31725C28.4757 3.66826 33.1436 12.1478 30.7925 20.2569Z" fill="#396EF1"/>
<path d="M0 20.7677L7.65808 4.8058L13.3799 6.46468L11.9313 9.50121L12.106 9.55186C12.9268 8.65344 13.899 8.03567 15.0227 7.69855C16.1463 7.36143 17.2941 7.36277 18.4662 7.70257C19.6382 8.04237 20.5083 8.63398 21.0766 9.47742C21.6471 10.3136 21.7871 11.2459 21.4968 12.2745L21.6715 12.3251C22.4204 11.4295 23.3978 10.8212 24.6036 10.5C25.8116 10.1715 27.0416 10.1888 28.2937 10.5518C29.8879 11.014 30.9502 11.8823 31.4803 13.1566C32.0178 14.433 31.8919 15.888 31.1026 17.5216L25.9447 28.2896L19.9171 26.5421L24.4135 17.2395C24.7285 16.5338 24.7934 15.9291 24.6079 15.4255C24.4246 14.9147 24.0199 14.5685 23.3938 14.387C22.7751 14.2076 22.1897 14.2667 21.6378 14.5644C21.0953 14.857 20.6665 15.3561 20.3514 16.0618L15.8551 25.3644L10.0896 23.6929L14.5859 14.3902C14.901 13.6845 14.9658 13.0799 14.7804 12.5763C14.597 12.0654 14.1924 11.7193 13.5663 11.5378C13.1586 11.4196 12.7599 11.4066 12.3702 11.4987C11.9878 11.593 11.6356 11.7869 11.3138 12.0803C11.0014 12.3685 10.7381 12.7459 10.5239 13.2125L6.02755 22.5152L0 20.7677Z" fill="white"/>
</svg>
