<svg width="15" height="15" viewBox="0 0 15 15" fill="none" xmlns="http://www.w3.org/2000/svg">
<path d="M6.25888 1.47054C6.55912 0.551078 7.85986 0.55108 8.16009 1.47054L9.17749 4.58632C9.3118 4.99763 9.69541 5.27591 10.1281 5.27591H13.4099C14.3798 5.27591 14.7818 6.51805 13.9958 7.08631L11.3493 8.99962C10.9971 9.25426 10.8496 9.70726 10.9846 10.1204L11.9974 13.2224C12.298 14.1428 11.2456 14.9105 10.4609 14.3432L7.79537 12.4161C7.44569 12.1633 6.97329 12.1633 6.6236 12.4161L3.95802 14.3432C3.17334 14.9105 2.12098 14.1428 2.42154 13.2224L3.43442 10.1204C3.56933 9.70726 3.42192 9.25426 3.0697 8.99962L0.423188 7.08631C-0.362833 6.51805 0.0391462 5.27591 1.00907 5.27591H4.29088C4.72356 5.27591 5.10717 4.99763 5.24148 4.58632L6.25888 1.47054Z" fill="#F5BF14"/>
</svg>
