<svg width="21" height="22" viewBox="0 0 21 22" fill="none" xmlns="http://www.w3.org/2000/svg">
<path d="M14.2042 8.53634C14.4395 8.74293 14.5751 9.03949 14.5779 9.35168C14.5806 9.66476 14.4505 9.96318 14.2189 10.1743L10.9193 13.465C10.4496 13.9021 9.72066 13.9021 9.251 13.465L7.06601 11.2835C6.83164 11.0732 6.69877 10.773 6.70061 10.459C6.70153 10.145 6.83717 9.84657 7.07338 9.63815C8.1059 8.69979 8.8247 9.73823 9.56096 10.4608C9.8507 10.7473 10.3194 10.7473 10.6092 10.4608L12.5506 8.52901C12.7619 8.29579 13.0636 8.16358 13.3792 8.16541C13.6947 8.16633 13.9947 8.3013 14.2042 8.53634ZM19.8143 13.4945C19.2321 14.072 18.9054 14.8579 18.9063 15.676C18.9054 16.6153 18.5308 17.5151 17.8636 18.1788C17.1965 18.8426 16.2923 19.2154 15.3484 19.2163C14.5263 19.2154 13.7365 19.5404 13.1561 20.1198C12.488 20.7827 11.5828 21.1555 10.639 21.1555C9.69511 21.1555 8.78986 20.7827 8.12187 20.1198C7.54149 19.5404 6.75163 19.2154 5.92951 19.2163C4.98557 19.2154 4.08132 18.8426 3.4143 18.1788C2.74718 17.515 2.37254 16.6152 2.37162 15.676C2.37255 14.8579 2.04591 14.072 1.46366 13.4945C0.797464 12.8297 0.422852 11.929 0.422852 10.9898C0.422852 10.0506 0.797464 9.14979 1.46366 8.4851C2.04588 7.90759 2.37254 7.12163 2.37162 6.30357C2.37255 5.36429 2.74716 4.4645 3.4143 3.80077C4.08142 3.13695 4.98567 2.76416 5.92951 2.76325C6.75166 2.76416 7.54149 2.43914 8.12187 1.85977C8.78991 1.19686 9.69511 0.824097 10.639 0.824097C11.5828 0.824097 12.4881 1.19686 13.1561 1.85977C13.7365 2.43911 14.5263 2.76416 15.3484 2.76325C16.2924 2.76416 17.1966 3.13693 17.8636 3.80077C18.5308 4.4646 18.9054 5.36439 18.9063 6.30357C18.9054 7.12166 19.232 7.90759 19.8143 8.4851C20.4805 9.14984 20.8551 10.0506 20.8551 10.9898C20.8551 11.929 20.4805 12.8298 19.8143 13.4945ZM15.2449 7.50072C14.7605 6.99205 14.0897 6.70285 13.3857 6.69824C12.6826 6.69457 12.0072 6.97644 11.5172 7.47867L10.0851 8.90365C9.94487 8.77144 9.83414 8.6686 9.73817 8.58779L9.75293 8.5731C7.24032 6.18948 3.5967 9.80894 6.01034 12.3118L8.21009 14.5007C9.24906 15.5235 10.9211 15.5235 11.96 14.5007L15.2743 11.2027C15.7781 10.7152 16.0605 10.0449 16.0549 9.34528C16.0494 8.64656 15.7571 7.98001 15.2449 7.50072Z" fill="#396EF1"/>
</svg>
