<svg width="30" height="22" viewBox="0 0 30 22" fill="none" xmlns="http://www.w3.org/2000/svg">
<path d="M29.9273 10.9627C29.9273 10.9627 23.9027 21.3605 14.9629 21.3605C6.02281 21.3605 0 10.9627 0 10.9627C0 10.9627 6.02281 0.52623 14.9629 0.52623C23.9027 0.52623 29.9273 10.9627 29.9273 10.9627ZM22.2914 10.9627C22.2914 6.9342 18.9914 3.63475 14.9629 3.63475C10.9344 3.63475 7.63437 6.9339 7.63437 10.9627C7.63437 14.9917 10.9344 18.2912 14.9629 18.2912C18.9914 18.2912 22.2914 14.992 22.2914 10.9627ZM14.9629 7.66352C13.1601 7.66352 11.7014 9.19787 11.7014 10.9627C11.7014 12.7661 13.1601 14.2241 14.9629 14.2241C16.7286 14.2241 18.2626 12.7661 18.2626 10.9627C18.2626 9.19787 16.7286 7.66352 14.9629 7.66352Z" fill="#53585F" fill-opacity="0.57"/>
</svg>
