<svg width="163" height="31" viewBox="0 0 163 31" fill="none" xmlns="http://www.w3.org/2000/svg">
<path d="M38.4527 24.3311L41.3238 7.10457H47.2005L46.6622 10.3794H46.8417C47.3725 9.30275 48.1239 8.4504 49.0959 7.82234C50.0679 7.1943 51.1558 6.88027 52.3595 6.88027C53.5633 6.88027 54.5502 7.20177 55.3203 7.84478C56.0904 8.4803 56.4792 9.32518 56.4867 10.3794H56.6662C57.1297 9.32518 57.8886 8.4803 58.9428 7.84478C59.9971 7.20177 61.1672 6.88027 62.4532 6.88027C64.0906 6.88027 65.3355 7.41112 66.1879 8.47283C67.0477 9.53453 67.3281 10.9476 67.029 12.7122L65.1 24.3311H58.9092L60.6139 14.2823C60.7186 13.5271 60.6139 12.9365 60.2999 12.5103C59.9859 12.0766 59.5073 11.8598 58.8643 11.8598C58.2288 11.8598 57.6905 12.0766 57.2493 12.5103C56.8157 12.9365 56.5465 13.5271 56.4419 14.2823L54.7371 24.3311H48.8155L50.5202 14.2823C50.6249 13.5271 50.5202 12.9365 50.2062 12.5103C49.8922 12.0766 49.4137 11.8598 48.7707 11.8598C48.352 11.8598 47.9707 11.957 47.6267 12.1514C47.2903 12.3458 47.0099 12.6262 46.7856 12.9925C46.5688 13.3514 46.423 13.7813 46.3482 14.2823L44.6435 24.3311H38.4527Z" fill="#F0F0F1"/>
<path d="M75.3705 24.6451C73.5312 24.6451 72.0059 24.2937 70.7947 23.5909C69.5835 22.8806 68.7311 21.8638 68.2376 20.5404C67.7442 19.2095 67.6544 17.6169 67.9685 15.7627C68.2675 13.9832 68.8844 12.428 69.819 11.0972C70.7611 9.76631 71.9461 8.73078 73.3742 7.99057C74.8097 7.25037 76.4172 6.88027 78.1967 6.88027C79.4977 6.88027 80.6379 7.08214 81.6173 7.48589C82.6043 7.88964 83.4081 8.47656 84.0286 9.24667C84.6492 10.0168 85.0679 10.9476 85.2847 12.0393C85.509 13.1234 85.509 14.3496 85.2847 15.7178L85.0604 17.1534H69.6732L70.2115 13.744H79.9014C79.9762 13.2505 79.9276 12.8168 79.7556 12.443C79.5911 12.0617 79.3257 11.7664 78.9594 11.557C78.6005 11.3402 78.1668 11.2318 77.6584 11.2318C77.15 11.2318 76.6715 11.3402 76.2229 11.557C75.7817 11.7738 75.4041 12.0766 75.0901 12.4654C74.7836 12.8542 74.578 13.3103 74.4733 13.8337L73.8004 17.4225C73.7107 17.9758 73.7443 18.4693 73.9013 18.9029C74.0583 19.3366 74.3312 19.6768 74.72 19.9235C75.1088 20.1703 75.6098 20.2936 76.2229 20.2936C76.6415 20.2936 77.0378 20.2376 77.4117 20.1254C77.793 20.0058 78.1294 19.8338 78.421 19.6095C78.7201 19.3777 78.9594 19.0973 79.1388 18.7684H84.7913C84.3875 19.9646 83.7482 21.0039 82.8735 21.8862C82.0061 22.761 80.937 23.4414 79.6659 23.9273C78.4023 24.4059 76.9705 24.6451 75.3705 24.6451Z" fill="#F0F0F1"/>
<path d="M93.2786 14.6412L91.6636 24.3311H85.4728L88.3439 7.10457H94.2206L93.6823 10.3794H93.8618C94.4076 9.28032 95.2038 8.42423 96.2506 7.81113C97.3048 7.19056 98.4675 6.88027 99.7385 6.88027C100.957 6.88027 101.97 7.15691 102.778 7.71019C103.585 8.26348 104.157 9.02611 104.494 9.99809C104.83 10.9701 104.89 12.0841 104.673 13.3402L102.834 24.3311H96.6431L98.2581 14.6412C98.4002 13.7888 98.2955 13.1196 97.9441 12.6337C97.6002 12.1477 97.0319 11.9047 96.2394 11.9047C95.7384 11.9047 95.2786 12.0168 94.8599 12.2411C94.4487 12.458 94.1047 12.772 93.8281 13.1832C93.5589 13.5869 93.3758 14.0729 93.2786 14.6412Z" fill="#F0F0F1"/>
<path d="M118.042 7.10457L117.279 11.5906H105.93L106.692 7.10457H118.042ZM109.563 2.97739H115.754L113.13 18.7908C113.092 19.0301 113.1 19.2319 113.152 19.3964C113.204 19.5534 113.309 19.6731 113.466 19.7553C113.631 19.8301 113.847 19.8674 114.117 19.8674C114.296 19.8674 114.517 19.845 114.778 19.8002C115.04 19.7478 115.238 19.7104 115.373 19.688L115.552 24.0395C115.238 24.1292 114.816 24.2302 114.285 24.3423C113.761 24.4619 113.152 24.5404 112.457 24.5778C111.006 24.6451 109.825 24.4918 108.913 24.118C108.008 23.7442 107.38 23.161 107.029 22.3684C106.685 21.5684 106.625 20.5703 106.849 19.374L109.563 2.97739Z" fill="#F0F0F1"/>
<path d="M124.819 24.6451C122.95 24.6451 121.409 24.275 120.198 23.5348C118.994 22.7871 118.15 21.7479 117.664 20.417C117.178 19.0786 117.08 17.5272 117.372 15.7627C117.664 13.9982 118.273 12.4505 119.2 11.1196C120.127 9.78126 121.32 8.74199 122.778 8.00179C124.236 7.25411 125.903 6.88027 127.78 6.88027C129.641 6.88027 131.174 7.25411 132.378 8.00179C133.589 8.74199 134.438 9.78126 134.924 11.1196C135.417 12.4505 135.518 13.9982 135.227 15.7627C134.935 17.5272 134.322 19.0786 133.387 20.417C132.453 21.7479 131.256 22.7871 129.798 23.5348C128.348 24.275 126.688 24.6451 124.819 24.6451ZM125.582 20.0693C126.12 20.0693 126.61 19.8936 127.051 19.5422C127.499 19.1908 127.881 18.6899 128.195 18.0394C128.516 17.3889 128.752 16.615 128.901 15.7178C129.051 14.8131 129.073 14.0393 128.969 13.3963C128.864 12.7458 128.647 12.2449 128.318 11.8935C127.989 11.542 127.555 11.3663 127.017 11.3663C126.479 11.3663 125.985 11.542 125.537 11.8935C125.088 12.2449 124.707 12.7458 124.393 13.3963C124.079 14.0393 123.847 14.8131 123.697 15.7178C123.548 16.615 123.522 17.3889 123.619 18.0394C123.724 18.6899 123.94 19.1908 124.269 19.5422C124.606 19.8936 125.043 20.0693 125.582 20.0693Z" fill="#F0F0F1"/>
<path d="M135.356 24.3311L138.227 7.10457H144.238L143.7 10.3794H143.879C144.395 9.16817 145.042 8.28217 145.82 7.72141C146.597 7.16065 147.446 6.88027 148.365 6.88027C148.635 6.88027 148.893 6.9027 149.139 6.94756C149.393 6.98495 149.644 7.03728 149.891 7.10457L148.993 12.3981C148.702 12.286 148.339 12.2075 147.906 12.1626C147.472 12.1103 147.087 12.0841 146.75 12.0841C146.152 12.0841 145.592 12.2224 145.068 12.4991C144.552 12.7682 144.111 13.1496 143.745 13.643C143.386 14.129 143.147 14.701 143.027 15.3589L141.547 24.3311H135.356Z" fill="#F0F0F1"/>
<path d="M148.102 24.3311L150.973 7.10457H156.984L156.446 10.3794H156.626C157.141 9.16817 157.788 8.28217 158.566 7.72141C159.343 7.16065 160.192 6.88027 161.112 6.88027C161.381 6.88027 161.639 6.9027 161.886 6.94756C162.14 6.98495 162.39 7.03728 162.637 7.10457L161.74 12.3981C161.448 12.286 161.085 12.2075 160.652 12.1626C160.218 12.1103 159.833 12.0841 159.497 12.0841C158.899 12.0841 158.338 12.2224 157.814 12.4991C157.299 12.7682 156.857 13.1496 156.491 13.643C156.132 14.129 155.893 14.701 155.773 15.3589L154.293 24.3311H148.102Z" fill="#F0F0F1"/>
<path d="M30.3756 19.4034C28.0564 27.4027 19.6916 32.0073 11.6924 29.6881C3.69313 27.3689 -0.911485 19.0042 1.40769 11.0049C3.72686 3.00567 12.0916 -1.59894 20.0909 0.720232C28.0901 3.03941 32.6947 11.4041 30.3756 19.4034Z" fill="#396EF1"/>
<path d="M0 19.9072L7.55437 4.16154L13.1987 5.79796L11.7698 8.79337L11.9421 8.84333C12.7518 7.95708 13.7108 7.34767 14.8192 7.01512C15.9277 6.68257 17.0599 6.68389 18.2161 7.01908C19.3722 7.35428 20.2306 7.93788 20.7912 8.7699C21.3539 9.59473 21.4921 10.5145 21.2057 11.5291L21.378 11.579C22.1168 10.6956 23.081 10.0954 24.2705 9.77861C25.462 9.45459 26.6754 9.47163 27.9105 9.82973C29.4832 10.2857 30.531 11.1422 31.054 12.3992C31.5842 13.6584 31.46 15.0937 30.6814 16.7051L25.5933 27.3274L19.6474 25.6035L24.0829 16.4268C24.3937 15.7307 24.4576 15.1342 24.2747 14.6375C24.0938 14.1335 23.6946 13.792 23.077 13.613C22.4666 13.436 21.8892 13.4944 21.3448 13.788C20.8096 14.0766 20.3866 14.569 20.0758 15.2651L15.6404 24.4418L9.95296 22.7929L14.3884 13.6162C14.6992 12.92 14.7632 12.3236 14.5802 11.8268C14.3994 11.3229 14.0002 10.9814 13.3826 10.8023C12.9805 10.6857 12.5872 10.6729 12.2027 10.7639C11.8254 10.8569 11.478 11.0481 11.1606 11.3375C10.8524 11.6218 10.5927 11.9941 10.3814 12.4544L5.94593 21.6311L0 19.9072Z" fill="white"/>
</svg>
