<svg width="96" height="93" viewBox="0 0 96 93" fill="none" xmlns="http://www.w3.org/2000/svg">
<path d="M93.0555 59.4235C85.9597 83.8984 60.3665 97.9869 35.8916 90.891C11.4168 83.7952 -2.67172 58.202 4.42413 33.7272C11.52 9.25229 37.1131 -4.8362 61.588 2.25964C86.0629 9.35549 100.151 34.9486 93.0555 59.4235Z" fill="#396EF1"/>
<path d="M0 61.3695L23.1137 13.1932L40.3833 18.2001L36.0113 27.365L36.5386 27.5178C39.0159 24.8062 41.9502 22.9416 45.3416 21.9241C48.733 20.9066 52.1974 20.9107 55.7348 21.9363C59.2722 22.9619 61.8985 24.7475 63.6138 27.2931C65.3354 29.8168 65.7581 32.6309 64.8819 35.7352L65.4092 35.8881C67.6696 33.1851 70.6195 31.3488 74.259 30.3794C77.9048 29.3881 81.6172 29.4402 85.3963 30.5359C90.2081 31.9309 93.4141 34.5515 95.0143 38.3976C96.6365 42.2502 96.2564 46.6417 93.8742 51.5721L78.3065 84.0724L60.1141 78.798L73.685 50.7206C74.6359 48.5907 74.8316 46.7658 74.2719 45.2458C73.7185 43.7039 72.4971 42.6591 70.6075 42.1113C68.74 41.5698 66.9733 41.7483 65.3075 42.6469C63.67 43.5298 62.3758 45.0362 61.4249 47.1661L47.854 75.2435L30.4525 70.1984L44.0234 42.121C44.9744 39.9911 45.17 38.1662 44.6103 36.6463C44.057 35.1044 42.8355 34.0595 40.946 33.5117C39.7156 33.1549 38.5122 33.1157 37.3359 33.3939C36.1816 33.6786 35.1187 34.2636 34.1475 35.1491C33.2045 36.019 32.4098 37.1582 31.7633 38.5665L18.1924 66.6439L0 61.3695Z" fill="white"/>
</svg>
