<svg width="21" height="22" viewBox="0 0 21 22" fill="none" xmlns="http://www.w3.org/2000/svg">
<path d="M20.7197 19.379L16.9665 15.6259C19.838 12.049 19.561 6.75935 16.2864 3.50997C14.5735 1.79712 12.2814 0.839935 9.83802 0.839935C7.39469 0.839935 5.12768 1.79712 3.38964 3.50997C1.67679 5.22282 0.719604 7.51502 0.719604 9.95835C0.719604 12.4017 1.67679 14.6687 3.38964 16.4067C5.10249 18.1196 7.39469 19.0768 9.83802 19.0768C11.9035 19.0768 13.9186 18.3715 15.5307 17.0868L19.2839 20.84C19.4854 21.0415 19.7373 21.1423 19.9892 21.1423C20.2663 21.1423 20.5182 21.0415 20.6945 20.84C21.0975 20.4118 21.0975 19.7821 20.7197 19.379ZM16.9413 9.93316C16.9413 11.8223 16.2108 13.6108 14.8758 14.9458C13.5408 16.2808 11.7524 17.0113 9.86321 17.0113C7.97403 17.0113 6.18562 16.2808 4.8506 14.9458C3.51558 13.6108 2.7851 11.8223 2.7851 9.93316C2.7851 8.04399 3.51558 6.25557 4.8506 4.92055C6.18562 3.58553 7.97403 2.85505 9.86321 2.85505C11.7524 2.85505 13.5408 3.58553 14.8758 4.92055C16.2108 6.25557 16.9413 8.04399 16.9413 9.93316Z" fill="#53585F"/>
</svg>
