<svg width="151" height="31" viewBox="0 0 151 31" fill="none" xmlns="http://www.w3.org/2000/svg">
<path d="M14.7027 3.87004C15.0021 2.94873 16.3055 2.94873 16.6048 3.87004L18.7463 10.4607C18.8802 10.8728 19.2641 11.1517 19.6974 11.1517L26.6272 11.1517C27.5959 11.1517 27.9987 12.3913 27.215 12.9607L21.6086 17.034C21.2581 17.2887 21.1115 17.74 21.2454 18.1521L23.3868 24.7428C23.6862 25.6641 22.6317 26.4302 21.848 25.8608L16.2416 21.7875C15.8911 21.5329 15.4165 21.5329 15.066 21.7875L9.45962 25.8608C8.67591 26.4302 7.62143 25.6641 7.92078 24.7428L10.0622 18.1521C10.1961 17.74 10.0494 17.2887 9.69896 17.034L4.09258 12.9607C3.30886 12.3913 3.71164 11.1517 4.68036 11.1517L11.6102 11.1517C12.0435 11.1517 12.4274 10.8728 12.5613 10.4607L14.7027 3.87004Z" fill="#F5BF14"/>
<path d="M44.7027 3.87004C45.0021 2.94873 46.3055 2.94873 46.6048 3.87004L48.7463 10.4607C48.8802 10.8728 49.2641 11.1517 49.6974 11.1517L56.6272 11.1517C57.5959 11.1517 57.9987 12.3913 57.215 12.9607L51.6086 17.034C51.2581 17.2887 51.1115 17.74 51.2454 18.1521L53.3868 24.7428C53.6862 25.6641 52.6317 26.4302 51.848 25.8608L46.2416 21.7875C45.8911 21.5329 45.4165 21.5329 45.066 21.7875L39.4596 25.8608C38.6759 26.4302 37.6214 25.6641 37.9208 24.7428L40.0622 18.1521C40.1961 17.74 40.0494 17.2887 39.699 17.034L34.0926 12.9607C33.3089 12.3913 33.7116 11.1517 34.6804 11.1517L41.6102 11.1517C42.0435 11.1517 42.4274 10.8728 42.5613 10.4607L44.7027 3.87004Z" fill="#F5BF14"/>
<path d="M74.7027 3.87004C75.0021 2.94873 76.3055 2.94873 76.6048 3.87004L78.7463 10.4607C78.8802 10.8728 79.2641 11.1517 79.6974 11.1517L86.6272 11.1517C87.5959 11.1517 87.9987 12.3913 87.215 12.9607L81.6086 17.034C81.2581 17.2887 81.1115 17.74 81.2454 18.1521L83.3868 24.7428C83.6862 25.6641 82.6317 26.4302 81.848 25.8608L76.2416 21.7875C75.8911 21.5329 75.4165 21.5329 75.066 21.7875L69.4596 25.8608C68.6759 26.4302 67.6214 25.6641 67.9208 24.7428L70.0622 18.1521C70.1961 17.74 70.0494 17.2887 69.699 17.034L64.0926 12.9607C63.3089 12.3913 63.7116 11.1517 64.6804 11.1517L71.6102 11.1517C72.0435 11.1517 72.4274 10.8728 72.5613 10.4607L74.7027 3.87004Z" fill="#F5BF14"/>
<path d="M104.703 3.87004C105.002 2.94873 106.305 2.94873 106.605 3.87004L108.746 10.4607C108.88 10.8728 109.264 11.1517 109.697 11.1517L116.627 11.1517C117.596 11.1517 117.999 12.3913 117.215 12.9607L111.609 17.034C111.258 17.2887 111.111 17.74 111.245 18.1521L113.387 24.7428C113.686 25.6641 112.632 26.4302 111.848 25.8608L106.242 21.7875C105.891 21.5329 105.416 21.5329 105.066 21.7875L99.4596 25.8608C98.6759 26.4302 97.6214 25.6641 97.9208 24.7428L100.062 18.1521C100.196 17.74 100.049 17.2887 99.699 17.034L94.0926 12.9607C93.3089 12.3913 93.7116 11.1517 94.6804 11.1517L101.61 11.1517C102.043 11.1517 102.427 10.8728 102.561 10.4607L104.703 3.87004Z" fill="#F5BF14"/>
<path d="M134.703 3.87004C135.002 2.94873 136.305 2.94873 136.605 3.87004L138.746 10.4607C138.88 10.8728 139.264 11.1517 139.697 11.1517L146.627 11.1517C147.596 11.1517 147.999 12.3913 147.215 12.9607L141.609 17.034C141.258 17.2887 141.111 17.74 141.245 18.1521L143.387 24.7428C143.686 25.6641 142.632 26.4302 141.848 25.8608L136.242 21.7875C135.891 21.5329 135.416 21.5329 135.066 21.7875L129.46 25.8608C128.676 26.4302 127.621 25.6641 127.921 24.7428L130.062 18.1521C130.196 17.74 130.049 17.2887 129.699 17.034L124.093 12.9607C123.309 12.3913 123.712 11.1517 124.68 11.1517L131.61 11.1517C132.043 11.1517 132.427 10.8728 132.561 10.4607L134.703 3.87004Z" fill="#F5BF14"/>
</svg>
