<svg width="123" height="16" viewBox="0 0 123 16" fill="none" xmlns="http://www.w3.org/2000/svg">
<path d="M104.825 6.33281V15.9806H107.919V9.55711H119.18V15.9806H122.271V6.34953L104.825 6.33281ZM107.574 3.21196H119.471C121.123 2.8835 122.352 1.42479 122.699 0.0140762H104.347C104.69 1.42567 105.937 2.8835 107.574 3.21196Z" fill="white"/>
<path d="M95.4545 15.9868C97.0145 15.3255 97.8537 14.1816 98.1756 12.8426H84.2982L84.3075 0.0224457L81.1968 0.0312468V15.9868H95.4545ZM58.0639 3.16882H69.0511C70.7075 2.68757 72.0984 1.42568 72.4375 0.026853H54.9836V9.45584H69.2686V12.7647L58.0635 12.7739C56.3076 13.2635 54.8185 14.4427 54.0757 16L54.9836 15.9833H72.338V6.32136H58.0635L58.0639 3.16882Z" fill="white"/>
<path d="M30.9402 3.19921H42.8331C44.4878 2.86942 45.7175 1.41204 46.0623 0H27.7111C28.0536 1.41204 29.3014 2.86942 30.9402 3.19921ZM30.9402 9.50516H42.8331C44.4878 9.1789 45.7175 7.72019 46.0623 6.30727H27.7111C28.0536 7.72107 29.3014 9.1789 30.9402 9.50516ZM30.9402 15.985H42.8331C44.4878 15.6561 45.7175 14.1979 46.0623 12.7867H27.7111C28.0536 14.1992 29.3014 15.6561 30.9402 15.985Z" fill="white"/>
<path d="M0 0.0391783C0.357522 1.4336 1.56526 2.85841 3.22122 3.21593H8.22742L8.48279 3.31676V15.9494H11.6089V3.31676L11.8933 3.21593H16.9039C18.5788 2.78444 19.7597 1.4336 20.1111 0.0391783V0.00835419H0V0.0391783Z" fill="white"/>
</svg>
