<svg width="62" height="62" viewBox="0 0 62 62" fill="none" xmlns="http://www.w3.org/2000/svg">
<path d="M31.0034 61.7355L39.6773 12.9542C47.9447 12.9542 50.5525 13.8607 50.9292 17.5612C50.9292 17.5612 56.4756 15.4932 59.2726 11.2933C48.3569 6.2352 37.3891 6.00708 37.3891 6.00708L30.9892 13.8021L31.0036 13.8011L24.6035 6.00586C24.6035 6.00586 13.6354 6.23422 2.72119 11.2923C5.51601 15.4923 11.0643 17.5602 11.0643 17.5602C11.4431 13.8595 14.0477 12.9529 22.2598 12.9471L31.0034 61.7355Z" fill="#E31937"/>
<path d="M31 3.75544C39.8238 3.68796 49.9234 5.12046 60.2629 9.62674C61.6447 7.1395 62 6.04025 62 6.04025C50.6975 1.56868 40.1131 0.0383857 30.9988 0C21.8847 0.0383857 11.3008 1.56892 0 6.04025C0 6.04025 0.504148 7.39426 1.73591 9.62674C12.0732 5.12046 22.175 3.68796 30.999 3.75544H31Z" fill="#E31937"/>
</svg>
